# xmcd CD database file
#
# Track frame offsets:
#	150
#	24262
#	48041
#	69476
#	93303
#	113544
#	137635
#	157284
#	176752
#	204250
#
# Disc length: 2931 seconds
#
# Revision: 0
# Processed by: cddbd v1.5PL3 Copyright (c) Steve Scherf et al.
# Submitted via: CDex 1.51
#
DISCID=7b0b710a
DTITLE=Ulisses Rocha - Fractal
DYEAR=1900
DGENRE=Jazz
TTITLE0=Chove Chuva
TTITLE1=Construção
TTITLE2=Pra não dizer que não falei das flores
TTITLE3=Garota de Ipanema
TTITLE4=Trem das Onze
TTITLE5=Hoje
TTITLE6=Tropicália
TTITLE7=Fé Cega, Faca Amolada
TTITLE8=Preciso Aprender a Só Ser
TTITLE9=Aquarela do Brasil
EXTD=
EXTT0=
EXTT1=
EXTT2=
EXTT3=
EXTT4=
EXTT5=
EXTT6=
EXTT7=
EXTT8=
EXTT9=
PLAYORDER=
